<?xml version="1.0" encoding="utf-8"?>
<!-- Generator: Adobe Illustrator 22.0.1, SVG Export Plug-In . SVG Version: 6.00 Build 0)  -->
<svg version="1.1" id="Layer_1" xmlns="http://www.w3.org/2000/svg" xmlns:xlink="http://www.w3.org/1999/xlink" x="0px" y="0px"
	 viewBox="0 0 488.7 201.7" style="enable-background:new 0 0 488.7 201.7;" xml:space="preserve">
<style type="text/css">
	.st0{fill:#F78721;}
	.st1{fill:#FFFFFF;}
	.st2{fill:#F8F9FA;}
</style>
<path class="st0" d="M158.4,72.8c0-0.7-0.1-1.3-0.1-1.9c-0.1-0.7-0.1-1.3-0.2-1.9c-0.1-0.7-0.2-1.3-0.3-1.9
	c-0.1-0.7-0.3-1.3-0.4-1.9c-0.2-0.7-0.3-1.3-0.5-1.9c-0.2-0.7-0.4-1.3-0.6-1.9c-5.3-14.7-19.4-25.3-36-25.3c-12.4,0-37.3,0-49.8,0
	c-16.2,0-30.1,10.1-35.7,24.4c-0.2,0.6-0.5,1.3-0.7,1.9c-0.2,0.6-0.4,1.3-0.6,1.9c-0.2,0.6-0.3,1.3-0.5,1.9
	c-0.1,0.6-0.3,1.3-0.4,1.9c-0.1,0.6-0.2,1.3-0.3,1.9c-0.1,0.6-0.1,1.3-0.2,1.9c0,0.6-0.1,1.3-0.1,1.9c0,0.1,0,0.2,0,0.4v1.6v1.9v1.9
	v1.9v1.9v1.9v1.9v1.9v1.9v1.9v1.9V97V99v1.9v1.9v1.9v1.9v1.9v1.9v1.9v1.9v1.9v1.9v1.9v1.9v1.9v1.9v0.1c0,0.6,0,1.2,0,1.8
	c0,0.7,0.1,1.3,0.1,1.9c0.1,0.7,0.1,1.3,0.2,1.9c0.1,0.7,0.2,1.3,0.3,1.9c0.1,0.7,0.3,1.3,0.4,1.9c4.3,17.2,19.9,30,38.4,30h47.1
	c18.2,0,33.6-12.3,38.2-29.1c0.2-0.6,0.3-1.3,0.5-1.9c0.1-0.6,0.3-1.3,0.4-1.9c0.1-0.6,0.2-1.3,0.3-1.9c0.1-0.6,0.1-1.3,0.2-1.9
	c0-0.6,0.1-1.3,0.1-1.9c0-0.3,0-0.6,0-0.8v-1.1v-1.9v-1.9v-1.9v-1.9v-1.9v-1.9v-1.9v-1.9v-1.9v-1.9v-1.9v-1.9V100V98v-1.9v-1.9v-1.9
	v-1.9v-1.9v-1.9v-1.9v-1.9v-1.9v-1.9v-1.9v-1.9v-0.6C158.4,73.7,158.4,73.2,158.4,72.8z"/>
<g>
	<path d="M118.2,154.5H72.3c-15.7,0-28.5-12.8-28.5-28.5V92.9c0-19.3,15.6-34.9,34.9-34.9h33c19.3,0,34.9,15.6,34.9,34.9V126
		C146.7,141.8,133.9,154.5,118.2,154.5z"/>
</g>
<g>
	<circle class="st1" cx="64.7" cy="96.6" r="8.8"/>
</g>
<g>
	<circle class="st1" cx="128.2" cy="96.6" r="8.8"/>
</g>
<g>
	<g>
		<path class="st1" d="M94.7,128.8c-5.6,0-11-1.5-16.2-4.4c-1.4-0.8-2-2.6-1.1-4.1c0.8-1.4,2.6-2,4.1-1.1c8.7,4.9,17.7,4.8,27.7-0.1
			c1.5-0.7,3.3-0.1,4,1.4c0.7,1.5,0.1,3.3-1.4,4C106,127.3,100.3,128.8,94.7,128.8z"/>
	</g>
</g>
<path class="st2" d="M212.4,153.2c-3.1-3.6-4.8-8.6-5.1-14.9l8.6-2.3c0.3,4.5,1.2,8.1,2.6,10.8s3.9,4.1,7.3,4.1
	c2.5,0,4.4-0.7,5.7-2.1c1.3-1.4,1.9-3.4,1.9-6.1c0-2.9-0.6-5.2-1.8-7.1c-1.2-1.9-3.1-4-5.8-6.3L214.2,119c-2.4-2.1-4.1-4.3-5.1-6.7
	c-1.1-2.4-1.6-5.3-1.6-8.7c0-5.1,1.5-9.1,4.4-11.9c2.9-2.8,6.9-4.2,12-4.2c5.5,0,9.7,1.5,12.5,4.4c2.8,2.9,4.5,7.5,5.1,13.6
	l-8.3,2.2c-0.3-4.1-1.1-7.2-2.4-9.4c-1.3-2.2-3.6-3.3-6.9-3.3c-2.5,0-4.4,0.6-5.7,1.9c-1.3,1.3-2,3.2-2,5.7c0,2.1,0.3,3.8,1,5.2
	c0.7,1.4,1.9,2.8,3.5,4.3l11.8,10.3c3,2.7,5.5,5.6,7.3,8.8c1.8,3.2,2.7,6.7,2.7,10.8c0,5.1-1.5,9.1-4.6,12.1c-3.1,3-7.1,4.5-12,4.5
	C220,158.6,215.5,156.8,212.4,153.2z"/>
<path class="st2" d="M249.9,91.1h9.2v9.6h-9.2V91.1z M249.9,108.1h9.2v49.7h-9.2V108.1z"/>
<path class="st2" d="M271.5,146.6v-32.4h-5.2v-6.1h5.2V93.6h9.2v14.5h8v6.1h-8V146c0,2,0.3,3.4,0.9,4.2c0.6,0.8,1.8,1.2,3.6,1.2
	c1.1,0,2.3-0.1,3.4-0.3v6.8c-2.3,0.3-4.4,0.5-6.4,0.5C275.1,158.5,271.5,154.6,271.5,146.6z"/>
<path class="st2" d="M296.1,91.1h9.2v9.6h-9.2V91.1z M296.1,108.1h9.2v49.7h-9.2V108.1z"/>
<path class="st2" d="M309.8,162.4h29.6v7h-29.6V162.4z"/>
<path class="st2" d="M344.8,88.2h16c6.3,0,11,1.4,14,4.3s4.6,7.2,4.6,13.2c0,8.9-3.3,13.8-10,14.7c4.1,1,7.1,2.9,9,5.8
	c1.9,2.9,2.8,6.8,2.8,11.8c0,6.3-1.5,11.1-4.4,14.6c-3,3.5-7.4,5.2-13.5,5.2h-18.6V88.2z M360.3,117.2c4,0,6.8-0.9,8.3-2.6
	c1.5-1.7,2.3-4.7,2.3-9c0-3.1-0.5-5.4-1.4-6.8c-0.9-1.5-2.4-2.4-4.3-2.8c-1.9-0.4-4.7-0.6-8.4-0.6h-2.3v21.8H360.3z M361.1,150.9
	c2.9,0,5.1-0.4,6.7-1.3c1.6-0.9,2.7-2.3,3.3-4.1c0.6-1.8,0.9-4.3,0.9-7.5c0-4.5-0.9-7.8-2.8-10c-1.8-2.2-4.8-3.3-8.9-3.3h-5.8v26.2
	H361.1z"/>
<path class="st2" d="M456.8,95.4H445v-7.2h32.9v7.2h-11.4v62.4h-9.7V95.4z"/>
<path class="st2" d="M427.2,157.5h-20.7c-8.8,0-16-7.2-16-16v-24.1c0-8.8,7.2-16,16-16h20.7c8.8,0,16,7.2,16,16v24.1
	C443.2,150.3,436,157.5,427.2,157.5z M406.5,109.4c-4.4,0-8,3.6-8,8v24.1c0,4.4,3.6,8,8,8h20.7c4.4,0,8-3.6,8-8v-24.1
	c0-4.4-3.6-8-8-8H406.5z"/>
<path d="M161.9,125.2c0,0,0.1,0,0.1,0.1L161.9,125.2L161.9,125.2z"/>
<g>
	<path d="M170.2,84.4V48.1c0-3.2-2.6-5.9-5.9-5.9h0c-3.2,0-5.9,2.6-5.9,5.9v9.4c-6.5-14.8-21.2-25.1-38.3-25.1H70.4
		c-17.1,0-31.8,10.3-38.3,25.1v-9.3c0-3.2-2.6-5.9-5.9-5.9h0c-3.2,0-5.9,2.6-5.9,5.9v36.3c-5,2.1-8.6,7.1-8.6,12.8v12.9
		c0,7.7,6.3,13.9,13.9,13.9h0c1,0,2-0.2,2.9-0.4v1.3h0v1.3c0,23.8,19.3,43.1,43.1,43.1h47.1c23.8,0,43.1-19.3,43.1-43.1v-1h0l0-1.7
		c0.9,0.3,1.9,0.5,2.9,0.5h0c7.7,0,13.9-6.3,13.9-13.9V97.2C178.7,91.4,175.2,86.5,170.2,84.4z M154.9,126.3
		c0,19.9-16.2,36.1-36.1,36.1H71.7c-19.9,0-36.1-16.2-36.1-36.1v-12c0,0,0,0,0-0.1V93.3c0,0,0,0,0-0.1V74.1
		c0-19.2,15.6-34.8,34.8-34.8h49.8c19.2,0,34.8,15.6,34.8,34.8v19.1v2.6c0,0.4-0.1,0.9-0.1,1.3v17.2c0,0.5,0,0.9,0.1,1.4V126.3z"/>
	<path class="st2" d="M156.3,114.3V97.1c0-0.4,0-0.8,0.1-1.2l0-21.8c0-20-16.3-36.3-36.3-36.3H70.4c-20,0-36.3,16.3-36.3,36.3v52.1
		c0,20.7,16.9,37.6,37.6,37.6h47.1c20.7,0,37.6-16.9,37.6-37.6v-10.6l0-0.2C156.4,115.1,156.3,114.7,156.3,114.3z M153.4,95.7
		c0,0.4-0.1,0.9-0.1,1.4v17.2c0,0.5,0,1,0.1,1.4v10.5c0,19.1-15.5,34.6-34.6,34.6H71.7c-19.1,0-34.6-15.5-34.6-34.6V74.1
		c0-18.4,14.9-33.3,33.3-33.3h49.8c18.4,0,33.3,14.9,33.3,33.3V95.7z M156.3,114.3V97.1c0-0.4,0-0.8,0.1-1.2l0-21.8
		c0-20-16.3-36.3-36.3-36.3H70.4c-20,0-36.3,16.3-36.3,36.3v52.1c0,20.7,16.9,37.6,37.6,37.6h47.1c20.7,0,37.6-16.9,37.6-37.6v-10.6
		l0-0.2C156.4,115.1,156.3,114.7,156.3,114.3z M153.4,95.7c0,0.4-0.1,0.9-0.1,1.4v17.2c0,0.5,0,1,0.1,1.4v10.5
		c0,19.1-15.5,34.6-34.6,34.6H71.7c-19.1,0-34.6-15.5-34.6-34.6V74.1c0-18.4,14.9-33.3,33.3-33.3h49.8c18.4,0,33.3,14.9,33.3,33.3
		V95.7z M156.3,114.3V97.1c0-0.4,0-0.8,0.1-1.2l0-21.8c0-20-16.3-36.3-36.3-36.3H70.4c-20,0-36.3,16.3-36.3,36.3v52.1
		c0,20.7,16.9,37.6,37.6,37.6h47.1c20.7,0,37.6-16.9,37.6-37.6v-10.6l0-0.2C156.4,115.1,156.3,114.7,156.3,114.3z M153.4,95.7
		c0,0.4-0.1,0.9-0.1,1.4v17.2c0,0.5,0,1,0.1,1.4v10.5c0,19.1-15.5,34.6-34.6,34.6H71.7c-19.1,0-34.6-15.5-34.6-34.6V74.1
		c0-18.4,14.9-33.3,33.3-33.3h49.8c18.4,0,33.3,14.9,33.3,33.3V95.7z"/>
	<path class="st2" d="M171.7,83.4V48.1c0-4.1-3.3-7.4-7.4-7.4s-7.4,3.3-7.4,7.4v3.3c-7.8-12.6-21.7-20.5-36.8-20.5H70.4
		c-15.1,0-29,7.9-36.8,20.5v-3.2c0-4.1-3.3-7.4-7.4-7.4c-4.1,0-7.4,3.3-7.4,7.4v35.3c-5.3,2.6-8.6,7.9-8.6,13.8v12.9
		c0,8.5,6.9,15.4,15.4,15.4c0.5,0,0.9,0,1.4-0.1l0,1c0.1,24.5,20.1,44.4,44.6,44.4h47.1c24.6,0,44.6-20,44.6-44.6v-0.8
		c0.5,0.1,0.9,0.1,1.4,0.1c8.5,0,15.4-6.9,15.4-15.4V97.2C180.2,91.3,176.9,86,171.7,83.4z M177.2,110.1c0,6.8-5.6,12.4-12.4,12.4
		c-0.8,0-1.7-0.1-2.5-0.4l-2-0.6l0,4.7c0,22.9-18.7,41.6-41.6,41.6H71.7c-22.9,0-41.6-18.7-41.6-41.6l0-2.8v-1.8l-1.9,0.6
		c-0.8,0.3-1.6,0.4-2.5,0.4c-6.8,0-12.4-5.6-12.4-12.4V97.3c0-5,3-9.5,7.7-11.4l0.9-0.4V48.1c0-2.4,2-4.4,4.4-4.4
		c2.4,0,4.4,2,4.4,4.4v16.5l2.9-6.6c6.4-14.7,20.9-24.2,36.9-24.2h49.8c16,0,30.5,9.5,36.9,24.2l2.9,6.6V48.1c0-2.4,2-4.4,4.4-4.4
		c2.4,0,4.4,2,4.4,4.4v37.3l0.9,0.4c4.7,2,7.7,6.5,7.7,11.5V110.1z"/>
</g>
</svg>
